<svg id="Capa_1" enable-background="new 0 0 512 512" height="512" viewBox="0 0 512 512" width="512" xmlns="http://www.w3.org/2000/svg" xmlns:xlink="http://www.w3.org/1999/xlink"><linearGradient id="SVGID_1_" gradientUnits="userSpaceOnUse" x1="256" x2="256" y1="451" y2="61"><stop offset="0" stop-color="#fd5900"/><stop offset="1" stop-color="#ffde00"/></linearGradient><linearGradient id="SVGID_2_" gradientUnits="userSpaceOnUse" x1="317" x2="317" y1="391" y2="121"><stop offset="0" stop-color="#ffe59a"/><stop offset="1" stop-color="#ffffd5"/></linearGradient><g><g><g><path d="m317 61c-27.891 0-54.609 5.698-79.336 16.904l-166.787 74.4c-5.273 2.358-8.76 7.573-8.877 13.359-.117 5.801 3.105 11.162 8.291 13.755l33.164 16.582-95.164 46.582c-5.068 2.549-8.291 7.734-8.291 13.418s3.223 10.869 8.291 13.418l95.164 46.582-33.164 16.582c-5.186 2.593-8.408 7.954-8.291 13.755.117 5.786 3.604 11.001 8.877 13.359l166.729 74.37c24.785 11.236 51.503 16.934 79.394 16.934 107.52 0 195-87.48 195-195s-87.48-195-195-195z" fill="url(#SVGID_1_)"/></g></g><g><g><path d="m317 121c-74.399 0-135 60.599-135 135 0 74.399 60.601 135 135 135s135-60.601 135-135c0-74.401-60.601-135-135-135zm60 150h-60c-8.401 0-15-6.601-15-15v-60c0-8.401 6.599-15 15-15s15 6.599 15 15v45h45c8.401 0 15 6.599 15 15 0 8.399-6.599 15-15 15z" fill="url(#SVGID_2_)"/></g></g></g></svg>